<svg width="32" height="32" viewBox="0 0 32 32" fill="none" xmlns="http://www.w3.org/2000/svg">
<path d="M18.1528 18.5757L21.4912 19.4412C22.5377 19.7125 23.2684 20.6569 23.2684 21.738V22.2408V25.308H8.73145V22.2408V21.738C8.73145 20.6569 9.46222 19.7125 10.5087 19.4412L13.8471 18.5757L15.4202 18.2891H17.2374L18.1528 18.5757Z" fill="#FEE45A"/>
<path d="M16.4099 18.2891H15.4202L13.8471 18.5757L10.5087 19.4412C9.46222 19.7125 8.73145 20.6569 8.73145 21.738V22.2408V25.3081H11.878V23.133V22.6302C11.878 21.5491 12.6088 20.6047 13.6553 20.3334L16.4099 19.6192V18.2891H16.4099Z" fill="#FEDF30"/>
<path d="M23.3543 7.76038C23.3543 3.73335 20.0897 0.46875 16.0626 0.46875C12.0356 0.46875 8.771 3.73335 8.771 7.76038V11.0189L23.3543 10.7893V7.76038H23.3543Z" fill="#918291"/>
<path d="M23.2297 13.819C23.8628 13.819 24.3761 13.3057 24.3761 12.6726V11.0859C24.3761 10.4528 23.8628 9.93945 23.2297 9.93945H19.1465V13.7917L23.2297 13.819Z" fill="#B5ADB6"/>
<path d="M9.98908 13.5514C9.2352 13.5514 8.62402 12.9402 8.62402 12.1864V10.728C8.62402 10.2925 8.97708 9.93945 9.41257 9.93945H13.1632V13.5514H9.98908Z" fill="#B5ADB6"/>
<path d="M18.1529 18.5764C18.1529 19.483 17.418 20.2179 16.5115 20.2179H15.4887C14.5821 20.2179 13.8472 19.483 13.8472 18.5764V13.5508H18.1529V18.5764H18.1529Z" fill="#FFE5C2"/>
<path d="M16 18.1671C16.7535 18.1671 17.4778 18.0399 18.1529 17.8065V16.002H15.0269V16.4591H13.8472V18.5781C13.8472 19.4846 14.5821 20.2195 15.4887 20.2195H16.5114C16.5963 20.2195 16.6797 20.2131 16.761 20.2007C15.9729 20.0804 15.3692 19.3998 15.3692 18.5781C15.3692 18.3424 15.565 18.1558 15.8006 18.1637C15.8668 18.166 15.9333 18.1671 16 18.1671Z" fill="#FFDCD5"/>
<path d="M24.8779 22.2422H7.12231C6.56747 22.2422 6.13204 22.718 6.18101 23.2706L6.83702 30.6707C6.88024 31.1583 7.28875 31.5322 7.77833 31.5322H24.2219C24.7115 31.5322 25.12 31.1583 25.1632 30.6707L25.8192 23.2706C25.8683 22.7179 25.4328 22.2422 24.8779 22.2422Z" fill="#A6E7F0"/>
<path d="M11.4381 29.9544C10.3451 29.9544 9.43311 29.1197 9.33656 28.031L8.82337 22.2422H7.12231C6.56747 22.2422 6.13204 22.718 6.18101 23.2706L6.83702 30.6706C6.88024 31.1583 7.28875 31.5322 7.77833 31.5322H24.2219C24.7115 31.5322 25.12 31.1583 25.1632 30.6706L25.2267 29.9544H11.4381V29.9544Z" fill="#6BD9E7"/>
<path d="M21.8061 17.9872C22.2971 17.9872 22.6952 17.5891 22.6952 17.0981C22.6952 16.607 22.2971 16.209 21.8061 16.209C21.315 16.209 20.917 16.607 20.917 17.0981C20.917 17.5891 21.315 17.9872 21.8061 17.9872Z" fill="#B5ADB6"/>
<path d="M14.6471 24.6387C13.029 24.6387 11.7173 25.9504 11.7173 27.5685V28.3882C11.7173 28.7134 11.9808 28.9769 12.306 28.9769H14.1758C14.3758 28.9769 14.5379 28.8148 14.5379 28.6148V28.2169C14.5379 28.1213 14.5 28.0296 14.4327 27.9617L14.3954 27.9241C14.1777 27.705 14.1942 27.3466 14.4311 27.1484C14.5259 27.0691 14.6456 27.0257 14.7692 27.0257H17.2936C17.4172 27.0257 17.5369 27.0691 17.6317 27.1484C17.8686 27.3466 17.8851 27.705 17.6674 27.9241L17.6301 27.9617C17.5627 28.0295 17.5249 28.1212 17.5249 28.2169V28.6148C17.5249 28.8148 17.687 28.9769 17.887 28.9769H19.7568C20.0819 28.9769 20.3455 28.7134 20.3455 28.3882V27.5685C20.3455 25.9504 19.0338 24.6387 17.4157 24.6387H14.6471Z" fill="#FAF7F7"/>
<path d="M21.3865 8.56826L20.9734 8.54128C20.5774 8.51543 20.1997 8.36479 19.8946 8.11097L18.3751 6.84722C18.2856 6.77271 18.1573 6.7669 18.0614 6.83298C16.4028 7.97507 14.4364 8.58662 12.4226 8.58662H10.6355C10.4689 8.58662 10.334 8.72165 10.334 8.88815V10.5527L10.7506 10.1988L11.3333 14.6673C11.3333 14.6673 13.3333 16.6673 14.3832 16.2089C14.5526 16.1773 16.4112 16.9933 16.4112 16.9933L18.5472 16.6262C20.3984 15.6937 21.6684 13.7763 21.6684 11.5621V8.86904C21.6684 8.71022 21.5451 8.57863 21.3865 8.56826Z" fill="#FFDCD5"/>
<path d="M21.3856 8.56798L20.9725 8.541C20.5765 8.51515 20.1988 8.36451 19.8937 8.11069L18.2501 6.74376C18.1747 6.68106 18.0604 6.73471 18.0604 6.8327C16.4018 7.97479 14.4354 8.58635 12.4216 8.58635H10.6345C10.468 8.58635 10.333 8.72137 10.333 8.88787V11.494C10.333 14.6217 12.8383 17.2104 15.966 17.229C16.8952 17.2345 17.7718 17.0169 18.5474 16.6258C18.2666 16.6686 17.9799 16.69 17.6872 16.69C14.5572 16.69 12.02 14.1527 12.02 11.0228V10.6836C12.02 10.5684 12.1133 10.4751 12.2284 10.4751C14.3435 10.4751 16.481 9.96583 18.1939 8.72506C18.2904 8.65517 18.4216 8.65985 18.5127 8.73567L20.0322 9.99943C20.3373 10.2532 20.715 10.4038 21.1111 10.4297C21.1111 10.4297 21.6256 10.4781 21.6675 10.5052V8.86889C21.6675 8.71 21.5442 8.57835 21.3856 8.56798Z" fill="#FFDCD5"/>
<path d="M26.2064 22.2323C25.9393 21.9405 25.5593 21.7732 25.1637 21.7732H24.0228V21.7389C24.0228 20.4444 23.1477 19.3135 21.8946 18.9886L18.9072 18.2141V17.1081C20.1525 16.5173 21.1683 15.5191 21.7819 14.2868H23.1716V14.7474C23.1716 15.1691 23.0173 15.575 22.7373 15.8904L22.7293 15.8993C22.5391 15.7977 22.322 15.7398 22.0917 15.7398C21.3432 15.7398 20.7342 16.3488 20.7342 17.0973C20.7342 17.8459 21.3432 18.4548 22.0917 18.4548C22.8402 18.4548 23.4492 17.8459 23.4492 17.0973C23.4492 16.9234 23.416 16.7572 23.3561 16.6043L23.4376 16.5125C23.8701 16.0256 24.1083 15.3987 24.1083 14.7473V14.1736C24.7063 13.9367 25.1305 13.3531 25.1305 12.6719V11.0853C25.1305 10.4041 24.7063 9.82045 24.1083 9.58363V7.7601C24.1083 6.56267 23.8423 5.41357 23.3178 4.34492C23.2039 4.11272 22.9231 4.01685 22.6909 4.13083C22.4587 4.24481 22.3629 4.52548 22.4768 4.75768C22.9378 5.6968 23.1715 6.70693 23.1715 7.7601V9.47046H22.4214V8.8684C22.4214 8.46389 22.1052 8.12639 21.7017 8.1001L21.2887 8.07312C20.9894 8.05357 20.7094 7.94184 20.4788 7.75017L18.9592 6.48641C18.7094 6.27856 18.3479 6.2622 18.0805 6.4465C16.4928 7.5397 14.6348 8.11752 12.7073 8.11752H10.9202C10.4957 8.11752 10.1503 8.46289 10.1503 8.88745V9.47046H9.69844C9.63949 9.47046 9.58197 9.47596 9.5252 9.48383V7.7601C9.5252 3.99768 12.5861 0.93681 16.3484 0.93681C18.2822 0.93681 20.1333 1.76295 21.4267 3.20339C21.5996 3.39581 21.8956 3.41186 22.0882 3.23893C22.2807 3.06612 22.2966 2.76996 22.1237 2.57748C20.6528 0.939433 18.5478 0 16.3484 0C12.0695 0 8.58839 3.48112 8.58839 7.76003V10.1392C8.49495 10.3148 8.44149 10.5149 8.44149 10.7273V12.1857C8.44149 13.1967 9.26401 14.0192 10.275 14.0192H10.6639C10.7951 14.319 10.9499 14.6095 11.1293 14.8872C11.2697 15.1045 14.3897 18.5764 12.286 15.3333C12.9526 15.3333 12.9526 16 11.9161 14.3787C11.3737 13.5394 11.0871 12.5651 11.0871 11.5614V9.05427H12.7073C14.7725 9.05427 16.7653 8.45053 18.4807 7.3068L19.8798 8.47039C20.2635 8.78953 20.7296 8.97539 21.2276 9.00786L21.4846 9.02466V11.5614C21.4846 14.428 19.1525 16.7602 16.2858 16.7602C15.1499 16.7602 14.071 16.4004 13.1657 15.7199C12.9589 15.5645 12.6668 15.3333 12.286 15.3333C12.1305 15.5401 12.4349 16.3008 12.6028 16.4687C12.938 16.7207 13.2934 16.9353 13.6646 17.1114V18.2139L10.6771 18.9884C9.42408 19.3133 8.54891 20.4443 8.54891 21.7387V21.773H7.40801C7.01248 21.773 6.63245 21.9403 6.3654 22.2321C6.09841 22.5239 5.96519 22.9172 6.00011 23.3112L6.65625 30.7114C6.72139 31.446 7.32663 32 8.06415 32H24.5077C25.2452 32 25.8505 31.446 25.9156 30.7114L26.04 29.3083C26.0628 29.0506 25.8724 28.8232 25.6147 28.8003C25.3577 28.7779 25.1296 28.9679 25.1068 29.2256L24.9824 30.6287C24.9605 30.8764 24.7564 31.0632 24.5077 31.0632H8.06415C7.81552 31.0632 7.61136 30.8764 7.58937 30.6287L6.93335 23.2287C6.92143 23.0939 6.96514 22.9646 7.05658 22.8648C7.14795 22.765 7.27279 22.71 7.40813 22.71H25.1637C25.2991 22.71 25.4239 22.765 25.5153 22.8648C25.6067 22.9647 25.6504 23.0939 25.6385 23.2287L25.2833 27.2364C25.2604 27.4941 25.4508 27.7215 25.7085 27.7443C25.9659 27.7674 26.1937 27.5768 26.2165 27.3191L26.5717 23.3114C26.6066 22.9174 26.4734 22.524 26.2064 22.2323ZM10.275 13.0824C9.78057 13.0824 9.37837 12.6802 9.37837 12.1858V10.7274C9.37837 10.5509 9.52201 10.4073 9.69851 10.4073H10.1504V11.5614C10.1504 12.0784 10.2149 12.5889 10.3408 13.0824H10.275ZM22.0918 17.5181C21.8597 17.5181 21.6711 17.3294 21.6711 17.0974C21.6711 16.8655 21.8597 16.6767 22.0918 16.6767C22.3238 16.6767 22.5124 16.8655 22.5124 17.0974C22.5124 17.3294 22.3238 17.5181 22.0918 17.5181ZM23.5157 10.4073C23.8896 10.4073 24.1937 10.7114 24.1937 11.0853V12.6719C24.1937 13.0458 23.8896 13.3499 23.5157 13.3499H22.1554C22.3283 12.7838 22.4216 12.1833 22.4216 11.5614V10.4072L23.5157 10.4073ZM16.286 17.697C16.8698 17.697 17.435 17.615 17.9704 17.4619V18.5764C17.9704 19.2233 17.4442 19.7495 16.7974 19.7495H15.7745C15.1278 19.7495 14.6015 19.2233 14.6015 18.5764V17.4637C15.1432 17.6177 15.7083 17.697 16.286 17.697ZM9.48585 21.7388C9.48585 20.8711 10.0725 20.1131 10.9123 19.8953L13.7475 19.1603C14.0015 20.0404 14.8137 20.6863 15.7745 20.6863H16.7973C17.7582 20.6863 18.5705 20.0404 18.8243 19.1603L21.6596 19.8953C22.4994 20.1131 23.086 20.8711 23.086 21.7388V21.7731H9.48585V21.7388Z" fill="black"/>
<path d="M17.298 27.6312C17.1424 27.7878 17.0567 27.9957 17.0567 28.2166V28.6145C17.0567 29.0724 17.4293 29.445 17.8872 29.445H19.757C20.3398 29.445 20.8141 28.9708 20.8141 28.3879V27.5682C20.8141 25.6944 19.2897 24.1699 17.4159 24.1699H14.6473C12.7735 24.1699 11.249 25.6944 11.249 27.5682V28.3879C11.249 28.9708 11.7233 29.445 12.3062 29.445H14.1759C14.6339 29.445 15.0065 29.0724 15.0065 28.6145V28.2166C15.0065 27.9957 14.9208 27.7878 14.7651 27.6312L14.7277 27.5935C14.7157 27.5814 14.71 27.5666 14.7108 27.5496C14.7116 27.5325 14.7187 27.5183 14.7317 27.5073C14.7423 27.4985 14.7556 27.4937 14.7694 27.4937H17.2938C17.3076 27.4937 17.3209 27.4985 17.3314 27.5073C17.3445 27.5183 17.3516 27.5324 17.3524 27.5496C17.3532 27.5666 17.3475 27.5814 17.3354 27.5936L17.298 27.6312ZM17.2938 26.5569H14.7693C14.5364 26.5569 14.3096 26.6392 14.1307 26.7887C13.9174 26.9671 13.7877 27.2287 13.7749 27.5065C13.7622 27.7843 13.8673 28.0567 14.0632 28.2538L14.0696 28.2603V28.5081H12.3062C12.2398 28.5081 12.1858 28.4541 12.1858 28.3878V27.5682C12.1858 26.2109 13.2901 25.1067 14.6473 25.1067H17.4159C18.7731 25.1067 19.8773 26.2109 19.8773 27.5682V28.3879C19.8773 28.4542 19.8234 28.5082 19.757 28.5082H17.9935V28.2604L17.9999 28.254C18.1959 28.0567 18.301 27.7843 18.2882 27.5066C18.2754 27.2288 18.1458 26.9672 17.9324 26.7887C17.7536 26.6392 17.5268 26.5569 17.2938 26.5569Z" fill="black"/>
<path d="M13.9585 11.068C13.6134 11.068 13.3335 10.7882 13.3335 10.443V9.95898C13.3335 9.6138 13.6134 9.33398 13.9585 9.33398C14.3036 9.33398 14.5835 9.6138 14.5835 9.95898V10.443C14.5835 10.7882 14.3036 11.068 13.9585 11.068Z" fill="black"/>
<path d="M18.3584 11.068C18.0133 11.068 17.7334 10.7882 17.7334 10.443V9.95898C17.7334 9.6138 18.0133 9.33398 18.3584 9.33398C18.7035 9.33398 18.9834 9.6138 18.9834 9.95898V10.443C18.9834 10.7882 18.7036 11.068 18.3584 11.068Z" fill="black"/>
<path d="M16.114 14.5559C15.5905 14.5559 15.0986 14.3514 14.7287 13.9802C14.485 13.7357 14.4857 13.3399 14.7302 13.0963C14.9749 12.8527 15.3705 12.8534 15.6142 13.0979C15.7478 13.2321 15.9253 13.3059 16.114 13.3059C16.3027 13.3059 16.4802 13.2321 16.6138 13.0979C16.8575 12.8534 17.2532 12.8527 17.4978 13.0963C17.7423 13.3399 17.743 13.7357 17.4993 13.9802C17.1294 14.3514 16.6375 14.5559 16.114 14.5559Z" fill="black"/>
</svg>
