<svg width="32" height="32" viewBox="0 0 32 32" fill="none" xmlns="http://www.w3.org/2000/svg">
<path d="M31.4751 14.913H22.3764C21.9227 12.2032 19.7737 10.0613 17.0605 9.618V0.521484C20.8065 0.769235 24.2943 2.34536 26.9741 5.02449C29.6469 7.69806 31.2224 11.1768 31.4751 14.913Z" fill="#FF7258"/>
<path d="M17.0605 9.61775V7.50781C20.9297 7.98588 23.9984 11.0471 24.4884 14.9127H22.3764C21.9227 12.2029 19.7738 10.061 17.0605 9.61775Z" fill="#F95D48"/>
<path d="M31.4784 17.002C31.2586 20.4055 29.9419 23.5968 27.6984 26.1632L22.7695 21.2343L21.2637 19.7284C21.8322 18.9344 22.2247 18.0068 22.3847 17.002H31.4784Z" fill="#FFDC65"/>
<path d="M24.4988 17.002C24.3144 18.5851 23.6978 20.036 22.7696 21.2343L21.2637 19.7284C21.8322 18.9344 22.2247 18.0068 22.3847 17.002H24.4988Z" fill="#FFC846"/>
<path d="M26.2238 27.64C23.3978 30.1208 19.812 31.477 16.0167 31.477C11.8783 31.477 7.98694 29.8647 5.06006 26.9385C2.13317 24.0117 0.521484 20.1203 0.521484 15.9818C0.521484 11.8427 2.13311 7.95138 5.06006 5.02449C7.73919 2.34536 11.2269 0.769235 14.9729 0.521484V9.618C11.9117 10.1183 9.568 12.7808 9.568 15.9818C9.568 19.5371 12.4608 22.4305 16.0167 22.4305C17.4251 22.4305 18.7292 21.9762 19.7911 21.2072L26.2238 27.64Z" fill="#00ABE0"/>
<path d="M19.7911 21.2072L21.3011 22.7173C19.8439 23.8682 18.0019 24.5558 15.9999 24.5558C11.2742 24.5558 7.44336 20.725 7.44336 15.9992C7.44336 11.6214 10.7314 8.01122 14.9727 7.50391V9.61804C11.9116 10.1183 9.56786 12.7808 9.56786 15.9819C9.56786 19.5371 12.4606 22.4306 16.0166 22.4306C17.4251 22.4306 18.7291 21.9762 19.7911 21.2072Z" fill="#099DD1"/>
<path d="M31.4752 15.4349H22.3767C22.1218 15.4349 21.9042 15.2507 21.8622 14.9993C21.4432 12.4975 19.4798 10.5418 16.9766 10.1326C16.7243 10.0914 16.5391 9.87335 16.5391 9.61773V0.521771C16.5391 0.377395 16.5988 0.239458 16.7043 0.140832C16.8097 0.0422696 16.9512 -0.00841798 17.0952 0.00114454C20.0871 0.198832 22.9474 1.22633 25.367 2.97265C25.6006 3.14128 25.6533 3.46734 25.4846 3.70109C25.316 3.93478 24.99 3.98728 24.7562 3.81871C22.646 2.29571 20.1763 1.35783 17.5825 1.08952V9.18873C20.1723 9.78323 22.2 11.8036 22.8041 14.3914H30.907C30.573 11.185 29.2448 8.24322 27.046 5.85359C26.8508 5.64153 26.8646 5.31153 27.0766 5.11641C27.2886 4.92122 27.6188 4.93497 27.8138 5.14703C30.3021 7.85097 31.7482 11.2159 31.9958 14.8779C32.0056 15.022 31.9551 15.1637 31.8564 15.2693C31.7578 15.3749 31.6197 15.4349 31.4752 15.4349Z" fill="black"/>
<path d="M27.698 26.6854C27.5598 26.6854 27.4271 26.6306 27.329 26.5326L20.894 20.0976C20.7135 19.9171 20.6901 19.6324 20.8388 19.4249C21.3699 18.6831 21.7262 17.817 21.8693 16.92C21.9096 16.6667 22.1281 16.4805 22.3845 16.4805H31.4778C31.622 16.4805 31.7598 16.5402 31.8585 16.6453C31.9572 16.7506 32.0078 16.8919 31.9986 17.0357C31.7708 20.5677 30.4195 23.8429 28.0908 26.5069C27.9958 26.6157 27.8599 26.6802 27.7155 26.6851C27.7097 26.6853 27.7038 26.6854 27.698 26.6854ZM21.9345 19.6622L27.6652 25.3929C29.5041 23.1276 30.6177 20.4275 30.9113 17.5238H22.8148C22.6432 18.2776 22.3441 19.0042 21.9345 19.6622Z" fill="black"/>
<path d="M16.017 31.9986C11.7386 31.9986 7.71645 30.3325 4.69126 27.3073C1.66607 24.2821 0 20.2599 0 15.9816C0 11.7033 1.66607 7.6811 4.69126 4.65597C7.4377 1.90953 11.077 0.256398 14.9387 0.00120978C15.0831 -0.00866524 15.2243 0.0422724 15.3297 0.140898C15.435 0.239523 15.4949 0.377398 15.4949 0.521836V9.61779C15.4949 9.87342 15.3097 10.0915 15.0573 10.1327C12.179 10.6032 10.09 13.063 10.09 15.9816C10.09 19.2497 12.7488 21.9086 16.017 21.9086C17.2706 21.9086 18.4699 21.5199 19.485 20.7847C19.6928 20.6344 19.9788 20.6572 20.16 20.8384L26.5927 27.271C26.6947 27.3731 26.7499 27.5128 26.7452 27.6569C26.7404 27.801 26.6764 27.9368 26.5679 28.0321C23.6544 30.5899 19.9074 31.9986 16.017 31.9986ZM14.4514 1.08965C11.05 1.44284 7.86439 2.95853 5.42914 5.39385C2.60101 8.22191 1.0435 11.982 1.0435 15.9816C1.0435 19.9812 2.60101 23.7414 5.42907 26.5695C8.2572 29.3976 12.0174 30.9551 16.017 30.9551C19.467 30.9551 22.7962 29.7703 25.4537 27.6078L19.7267 21.8808C18.6155 22.5831 17.3421 22.9521 16.017 22.9521C12.1735 22.9521 9.04646 19.8252 9.04646 15.9816C9.04646 14.32 9.64327 12.7097 10.7268 11.4474C11.7006 10.3129 13.0103 9.52179 14.4514 9.18904V1.08965Z" fill="black"/>
</svg>
