<svg width="64" height="64" viewBox="0 0 64 64" fill="none" xmlns="http://www.w3.org/2000/svg">
<g clip-path="url(#clip0)">
<path d="M34.802 49.688H48.8952C51.2585 49.688 53.2365 47.8965 53.4694 45.5454L55.1579 28.52C55.9387 20.6504 49.757 13.8252 41.8483 13.8252C33.9401 13.8252 27.7585 20.6504 28.5393 28.52L30.2277 45.5454C30.4611 47.8965 32.4392 49.688 34.802 49.688Z" fill="#627687"/>
<path d="M55.1108 55.9565V63.063H28.5781V55.9565C28.5781 52.1885 30.6338 48.9023 33.6851 47.1577C35.1646 46.3096 36.8794 45.8252 38.7075 45.8252H44.981C46.8462 45.8252 48.5942 46.3306 50.0957 47.2104C53.0957 48.9688 55.1108 52.2256 55.1108 55.9565Z" fill="#3A82D0"/>
<path d="M55.1138 55.9565V63.063H52.9678V55.9565C52.9678 52.2256 50.9526 48.9688 47.9526 47.2104C46.4512 46.3306 44.7031 45.8252 42.8379 45.8252H44.9839C46.8491 45.8252 48.5972 46.3306 50.0986 47.2104C53.0986 48.9688 55.1138 52.2256 55.1138 55.9565Z" fill="#0D73CE"/>
<path d="M50.7285 56.4832V63.0618H32.9688V56.4832C32.9688 56.4832 37.8589 54.993 41.8486 57.9402C45.8389 54.993 50.7285 56.4832 50.7285 56.4832Z" fill="#EBEEF2"/>
<path d="M41.8447 49.6895C40.5532 49.6895 39.5059 48.6426 39.5059 47.3511V40.791H44.1831V47.3511C44.1831 48.6426 43.1362 49.6895 41.8447 49.6895Z" fill="#F8C298"/>
<path d="M55.5981 32.8877C55.5981 34.627 54.1885 36.0366 52.4497 36.0366C50.7104 36.0366 49.3008 34.627 49.3008 32.8877C49.3008 31.1489 50.7104 29.7393 52.4497 29.7393C54.1885 29.7393 55.5981 31.1489 55.5981 32.8877Z" fill="#F8C298"/>
<path d="M34.3911 32.8877C34.3911 34.627 32.9814 36.0366 31.2427 36.0366C29.5034 36.0366 28.0938 34.627 28.0938 32.8877C28.0938 31.1489 29.5034 29.7393 31.2427 29.7393C32.9814 29.7393 34.3911 31.1489 34.3911 32.8877Z" fill="#F8C298"/>
<path d="M31.9277 23.9893L33.4277 36C33.9585 40.2471 37.5684 43.4341 41.8486 43.4341C46.1284 43.4341 49.7383 40.2466 50.269 36L51.769 23.9893H31.9277Z" fill="#FFD6C0"/>
<path d="M30.3945 22.833V26.2974C30.3945 26.2974 36.8882 28.6084 41.5654 24.3262C41.5654 24.3262 43.3613 30.0356 51.0889 31.2124C51.6787 31.3027 52.229 30.8906 52.3076 30.2988L53.2993 22.833H30.3945Z" fill="#627687"/>
<path d="M48.1704 35.8901C48.1704 36.3599 47.7896 36.7412 47.3193 36.7412C46.8496 36.7412 46.4688 36.3599 46.4688 35.8901C46.4688 35.4199 46.8496 35.0391 47.3193 35.0391C47.7896 35.0391 48.1704 35.4199 48.1704 35.8901Z" fill="#ED7A98"/>
<path d="M37.2236 35.8901C37.2236 36.3599 36.8428 36.7412 36.3726 36.7412C35.9028 36.7412 35.5215 36.3599 35.5215 35.8901C35.5215 35.4199 35.9028 35.0391 36.3726 35.0391C36.8428 35.0391 37.2236 35.4199 37.2236 35.8901Z" fill="#ED7A98"/>
<path d="M34.0063 63.062H2.8125V51.688C2.8125 47.603 6.12354 44.292 10.2085 44.292H26.6104C30.6953 44.292 34.0063 47.603 34.0063 51.688V63.062Z" fill="#5F9EEB"/>
<path d="M13.084 44.292H24.0898V63.062H13.084V44.292Z" fill="#EBEEF2"/>
<path d="M34.0063 51.688V63.062H31.4858V51.688C31.4858 47.604 28.1738 44.292 24.0898 44.292H26.6113C30.6953 44.292 34.0063 47.604 34.0063 51.688Z" fill="#3A82D0"/>
<path d="M18.5874 48.457C17.1948 48.457 16.0664 47.3281 16.0664 45.936V38.8643H21.1084V45.936C21.1084 47.3281 19.9795 48.457 18.5874 48.457Z" fill="#E39F6E"/>
<path d="M5.25027 29.002H31.9246L32.6282 25.5703C34.45 16.6826 27.6599 8.35938 18.5877 8.35938C9.51492 8.35938 2.72488 16.6826 4.54715 25.5703L5.25027 29.002Z" fill="#455E6D"/>
<path d="M33.4136 30.3457C33.4136 32.2202 31.894 33.7397 30.0195 33.7397C28.1445 33.7397 26.625 32.2202 26.625 30.3457C26.625 28.4712 28.1445 26.9512 30.0195 26.9512C31.894 26.9512 33.4136 28.4712 33.4136 30.3457Z" fill="#E39F6E"/>
<path d="M10.5503 30.3457C10.5503 32.2202 9.03076 33.7397 7.15625 33.7397C5.28174 33.7397 3.76172 32.2202 3.76172 30.3457C3.76172 28.4712 5.28174 26.9512 7.15625 26.9512C9.03076 26.9512 10.5503 28.4712 10.5503 30.3457Z" fill="#E39F6E"/>
<path d="M18.5884 41.7144C13.9741 41.7144 10.0825 38.2783 9.51074 33.7002L7.82227 20.1826H29.354L27.6655 33.7002C27.0938 38.2783 23.2021 41.7144 18.5884 41.7144Z" fill="#F8C298"/>
<path d="M5.90625 21.1167C5.90625 21.1167 8.18311 23.375 14.313 23.5391C14.7012 23.5493 15.0229 23.2378 15.0229 22.8491V21.9395C15.0229 21.9395 17.2505 23.4014 21.9717 23.5381C22.3608 23.5493 22.6841 23.2383 22.6841 22.8486V22.3325C22.6841 22.3325 24.5205 23.4536 30.0254 23.543C30.4111 23.5488 30.728 23.2388 30.728 22.853V19.0283H5.90625V21.1167Z" fill="#455E6D"/>
<path d="M59.5791 0.9375H40.5693C39.7114 0.9375 39.0156 1.6333 39.0156 2.49121V14.9307C39.0156 15.7891 39.7114 16.4849 40.5693 16.4849H43.9111L45.3315 18.3213C45.9536 19.1255 47.168 19.1255 47.7896 18.3213L49.2104 16.4849H59.5791C60.437 16.4849 61.1328 15.7891 61.1328 14.9307V2.49121C61.1328 1.6333 60.437 0.9375 59.5791 0.9375Z" fill="#EB5777"/>
<path d="M38.1595 32.1824C38.1458 31.6649 37.7152 31.2572 37.1971 31.2708C36.6791 31.285 36.2714 31.7161 36.2855 32.2337L36.2992 32.7332C36.3129 33.242 36.7298 33.6448 37.2357 33.6448C37.2445 33.6448 37.2533 33.6448 37.2616 33.6443C37.7796 33.6302 38.1873 33.199 38.1732 32.6815L38.1595 32.1824Z" fill="black"/>
<path d="M46.4539 31.2705C46.4452 31.2705 46.4364 31.2705 46.4281 31.271C45.9105 31.2847 45.5023 31.7158 45.516 32.2334L45.5296 32.7324C45.5433 33.2417 45.9603 33.6445 46.4662 33.6445C46.4749 33.6445 46.4837 33.6445 46.492 33.644C47.0096 33.6304 47.4178 33.1992 47.4041 32.6816L47.3905 32.1826C47.3768 31.6738 46.9598 31.2705 46.4539 31.2705Z" fill="black"/>
<path d="M45.2027 34.9361C44.7837 34.6324 44.1973 34.7261 43.8936 35.1456C43.419 35.8008 42.6539 36.1924 41.8472 36.1924C41.0401 36.1924 40.275 35.8008 39.8003 35.1456C39.4966 34.7261 38.9107 34.6324 38.4913 34.9361C38.0718 35.2398 37.9781 35.8257 38.2818 36.2452C39.108 37.3863 40.4405 38.0674 41.8467 38.0674C43.253 38.0674 44.586 37.3863 45.4121 36.2452C45.7159 35.8257 45.6221 35.2398 45.2027 34.9361Z" fill="black"/>
<path d="M4.25977 47.1934C3.81104 46.9351 3.23779 47.0899 2.97998 47.5386C2.25732 48.7955 1.875 50.2305 1.875 51.6876V63.0616C1.875 63.5792 2.29443 63.9992 2.8125 63.9992C3.33057 63.9992 3.75 63.5792 3.75 63.0616V51.6876C3.75 50.5577 4.0459 49.4463 4.60547 48.4737C4.86328 48.0245 4.7085 47.4517 4.25977 47.1934Z" fill="black"/>
<path d="M13.5741 28.6771C13.0565 28.6913 12.6483 29.1219 12.6625 29.6395L12.6771 30.1776C12.6908 30.6864 13.1078 31.0897 13.6136 31.0897C13.6224 31.0897 13.6312 31.0897 13.64 31.0892C14.1576 31.075 14.5658 30.6439 14.5516 30.1268L14.537 29.5887C14.5228 29.0711 14.0907 28.6634 13.5741 28.6771Z" fill="black"/>
<path d="M23.5707 31.0897C23.5795 31.0897 23.5883 31.0897 23.5971 31.0892C24.1146 31.075 24.5228 30.6439 24.5082 30.1263L24.4935 29.5882C24.4794 29.0706 24.0512 28.6634 23.5307 28.6771C23.0131 28.6913 22.6049 29.1224 22.6195 29.64L22.6342 30.1776C22.6478 30.6864 23.0648 31.0897 23.5707 31.0897Z" fill="black"/>
<path d="M22.3716 33.922C22.6753 33.5026 22.5816 32.9167 22.1617 32.6125C21.7427 32.3092 21.1563 32.403 20.8526 32.8224C20.3272 33.548 19.4805 33.9811 18.5875 33.9811C17.6944 33.9811 16.8472 33.548 16.3218 32.8224C16.0181 32.403 15.4322 32.3092 15.0128 32.6125C14.5933 32.9167 14.4996 33.5026 14.8033 33.922C15.6802 35.133 17.0948 35.8561 18.587 35.8561C20.0796 35.8561 21.4942 35.133 22.3716 33.922Z" fill="black"/>
<path d="M8.83789 52.9902C8.32031 52.9902 7.90039 53.4097 7.90039 53.9277V63.0625C7.90039 63.5801 8.32031 64 8.83789 64C9.35596 64 9.77539 63.5801 9.77539 63.0625V53.9277C9.77539 53.4097 9.35596 52.9902 8.83789 52.9902Z" fill="black"/>
<path d="M27.9844 52.9902C27.4663 52.9902 27.0469 53.4097 27.0469 53.9277V63.0625C27.0469 63.5801 27.4663 64 27.9844 64C28.502 64 28.9219 63.5801 28.9219 63.0625V53.9277C28.9219 53.4097 28.502 52.9902 27.9844 52.9902Z" fill="black"/>
<path d="M59.5801 0H40.5703C39.1968 0 38.0791 1.11768 38.0791 2.49121V6.4585C38.0791 6.97656 38.4985 7.396 39.0166 7.396C39.5342 7.396 39.9541 6.97656 39.9541 6.4585V2.49121C39.9541 2.15137 40.2305 1.875 40.5703 1.875H59.5801C59.9199 1.875 60.1963 2.15137 60.1963 2.49121V14.9312C60.1963 15.2705 59.9199 15.5474 59.5801 15.5474H49.2114C48.9214 15.5474 48.6475 15.6816 48.4697 15.9111L47.0493 17.7476C46.8882 17.9556 46.6748 17.9868 46.5615 17.9868C46.4487 17.9868 46.2354 17.9556 46.0742 17.7476L44.6538 15.9111C44.4761 15.6816 44.2021 15.5474 43.9121 15.5474H40.5703C40.2305 15.5474 39.9541 15.271 39.9541 14.9312V10.5415C39.9541 10.0234 39.5347 9.604 39.0166 9.604C38.4985 9.604 38.0791 10.0234 38.0791 10.5415V13.3882C36.0146 13.9492 34.1104 14.9683 32.4907 16.3716C31.9521 15.1914 31.2598 14.0708 30.4189 13.04C27.5068 9.47021 23.1938 7.42285 18.5869 7.42285C13.98 7.42285 9.66699 9.47021 6.75439 13.04C3.84229 16.6099 2.70264 21.2456 3.62793 25.7588L3.96777 27.417C3.2583 28.1885 2.82422 29.2173 2.82422 30.3457C2.82422 32.7339 4.76758 34.6772 7.15576 34.6772C7.68164 34.6772 8.19141 34.5815 8.67188 34.4019C9.33105 37.9673 11.8467 40.833 15.1279 42.0361V43.355H10.2085C8.82129 43.355 7.44727 43.7031 6.23584 44.3613C5.78076 44.6084 5.6123 45.1777 5.85938 45.6328C6.0293 45.9453 6.35156 46.123 6.68408 46.123C6.83545 46.123 6.98877 46.0864 7.13086 46.0088C8.06885 45.4995 9.13281 45.23 10.2085 45.23H12.1465V63.0625C12.1465 63.5801 12.5659 64 13.084 64C13.6016 64 14.0215 63.5801 14.0215 63.0625V45.23H15.1284V45.936C15.1284 47.8428 16.6797 49.394 18.5869 49.394C20.4937 49.394 22.0449 47.8428 22.0449 45.936V45.23H23.1523V63.0625C23.1523 63.5801 23.5718 64 24.0898 64C24.6074 64 25.0273 63.5801 25.0273 63.0625V45.23H26.6108C30.1719 45.23 33.0693 48.1274 33.0693 51.6885V63.0625C33.0693 63.5801 33.4888 64 34.0068 64C34.5244 64 34.9443 63.5801 34.9443 63.0625V57.0889C36.584 56.9438 39.0996 57.0767 41.29 58.6948C41.4556 58.8169 41.6514 58.8784 41.8472 58.8784C42.043 58.8784 42.2388 58.8169 42.4043 58.6948C45.1382 56.6758 48.4111 56.9805 49.7896 57.2324V63.0625C49.7896 63.5801 50.209 64 50.7271 64C51.2446 64 51.6646 63.5801 51.6646 63.0625V54.7632C51.6646 54.2451 51.2446 53.8257 50.7271 53.8257C50.209 53.8257 49.7896 54.2451 49.7896 54.7632V55.3257C49.2617 55.2422 48.5894 55.1709 47.8237 55.1665V47.2139C51.5063 48.4131 54.1763 51.8774 54.1763 55.9551V63.0625C54.1763 63.5801 54.5957 64 55.1138 64C55.6313 64 56.0513 63.5801 56.0513 63.0625V55.9551C56.0513 53.1138 54.9746 50.519 53.208 48.5576C53.877 47.7261 54.2935 46.7178 54.4009 45.6377L54.6616 43.0088C54.7124 42.4937 54.3364 42.0347 53.8213 41.9834C53.3047 41.9321 52.8467 42.3086 52.7959 42.8237L52.5352 45.4526C52.4692 46.1182 52.2251 46.7422 51.834 47.2686C49.9824 45.8052 47.6538 44.9209 45.123 44.8892V43.7798C48.1431 42.6548 50.4604 40.02 51.0957 36.7417C51.5288 36.8936 51.9873 36.9736 52.4502 36.9736C52.7725 36.9736 53.0859 36.9351 53.3867 36.8643L53.2007 38.7412C53.1494 39.2563 53.5259 39.7158 54.041 39.7666C54.0723 39.77 54.1035 39.7715 54.1348 39.7715C54.6108 39.7715 55.0186 39.4102 55.0664 38.9263L55.3838 35.728C56.0967 34.9922 56.5366 33.9907 56.5366 32.8877C56.5366 32.0737 56.2964 31.3154 55.8848 30.6777L56.0894 28.6128C56.502 24.4541 55.1045 20.4111 52.3008 17.4224H59.5796C60.9536 17.4224 62.0713 16.3052 62.0713 14.9312V2.49121C62.0713 1.11768 60.9536 0 59.5801 0V0ZM32.4741 30.3457C32.4741 31.7002 31.3721 32.8022 30.0176 32.8022C29.5698 32.8022 29.1421 32.6826 28.7642 32.4575L29.3223 27.9888C29.5459 27.9229 29.7783 27.8892 30.0176 27.8892C31.3721 27.8887 32.4741 28.9912 32.4741 30.3457ZM30.0903 34.6753C30.8745 34.6626 31.6089 34.4404 32.2397 34.062L32.333 34.8105C32.0029 34.9985 31.6318 35.0986 31.2437 35.0986C30.8296 35.0986 30.4375 34.9814 30.1001 34.7778L30.0903 34.6753ZM8.20752 14.2251C10.7622 11.0938 14.5454 9.29736 18.5869 9.29736C22.6279 9.29736 26.4111 11.0933 28.9658 14.2251C31.5205 17.3569 32.5205 21.4233 31.7085 25.3823L31.5239 26.2847C31.0542 26.1099 30.5469 26.0137 30.0171 26.0137C29.8662 26.0137 29.7158 26.0234 29.5659 26.0391L29.7612 24.4746C29.8442 24.4766 29.9268 24.4785 30.0117 24.48H30.0386C30.4688 24.48 30.8735 24.3145 31.1812 24.0117C31.4946 23.7036 31.667 23.292 31.667 22.853V21.1162C31.667 20.5986 31.2476 20.1787 30.7295 20.1787C30.2114 20.1787 29.792 20.5986 29.792 21.1162V22.6001C25.0537 22.4937 23.2832 21.5898 23.168 21.5278C22.8809 21.3438 22.5273 21.3379 22.2271 21.5005C21.9248 21.6641 21.748 21.9883 21.748 22.332V22.5923C17.5742 22.4243 15.5542 21.165 15.5391 21.1553C15.251 20.9663 14.8818 20.9507 14.5791 21.1143C14.2759 21.2778 14.0869 21.5947 14.0869 21.9395V22.5938C10.687 22.4678 8.59668 21.6816 7.43457 21.0356C6.98145 20.7842 6.41113 20.9473 6.15967 21.3999C5.9082 21.8525 6.07129 22.4233 6.52344 22.6748C6.73389 22.7915 6.96973 22.9121 7.23193 23.0332L7.60742 26.0376C7.45801 26.0225 7.30762 26.0142 7.15625 26.0142C6.62646 26.0142 6.11914 26.1099 5.64941 26.2847L5.46484 25.3828C4.65283 21.4233 5.65283 17.3569 8.20752 14.2251ZM4.69922 30.3457C4.69922 28.9912 5.80127 27.8887 7.15625 27.8887C7.39453 27.8887 7.62695 27.9238 7.85107 27.9897L8.40918 32.4575C8.03125 32.6831 7.60352 32.8022 7.15625 32.8022C5.80127 32.8022 4.69922 31.7002 4.69922 30.3457ZM10.4395 33.5835L9.21191 23.7568C10.5278 24.1304 12.2007 24.4194 14.2871 24.4756C14.73 24.4858 15.1519 24.3237 15.4702 24.0137C15.6567 23.832 15.7939 23.6143 15.8755 23.3755C17.0796 23.8389 19.0889 24.3921 21.9458 24.4746C22.3813 24.4873 22.8154 24.3198 23.1294 24.0142C23.2466 23.9004 23.3442 23.7725 23.4209 23.6343C24.313 23.9126 25.7412 24.23 27.8823 24.3872L27.5303 27.2075C27.5293 27.2153 27.5283 27.2231 27.5273 27.2305L26.7339 33.5835C26.2217 37.6841 22.7192 40.7764 18.5864 40.7764C14.4541 40.7764 10.9517 37.6841 10.4395 33.5835ZM18.5869 47.5195C17.7139 47.5195 17.0034 46.8091 17.0034 45.936V42.5239C17.5205 42.6064 18.0488 42.6514 18.5869 42.6514C19.1245 42.6514 19.6533 42.6064 20.1699 42.5239V45.936C20.1699 46.8091 19.46 47.5195 18.5869 47.5195ZM22.0449 43.355V42.0361C24.9458 40.9722 27.25 38.6104 28.2007 35.6128C28.2363 35.6528 28.2729 35.6919 28.3105 35.7305L29.1045 43.7368C28.3164 43.4888 27.479 43.355 26.6104 43.355H22.0449ZM31.0806 44.6606L30.3071 36.8638C30.6094 36.9351 30.9233 36.9736 31.2437 36.9736C31.7124 36.9736 32.168 36.894 32.5986 36.7427C33.2344 40.021 35.5513 42.6553 38.5708 43.7798V44.8901C36.6187 44.9146 34.7349 45.4438 33.0708 46.4316C32.5073 45.7402 31.835 45.1421 31.0806 44.6606ZM34.9443 55.208V51.6885C34.9443 50.3682 34.6343 49.1196 34.0854 48.0088C34.6528 47.6777 35.251 47.4116 35.8706 47.2104V55.1704C35.5435 55.1724 35.2329 55.186 34.9443 55.208ZM45.9487 46.8135V55.2974C44.6396 55.4917 43.2144 55.9302 41.8472 56.8037C40.4819 55.9326 39.0552 55.4941 37.7456 55.3003V46.814C38.0186 46.7852 38.2939 46.7695 38.5708 46.7651V47.3496C38.5708 49.1562 40.0405 50.6255 41.8472 50.6255C43.6533 50.6255 45.123 49.1558 45.123 47.3496V46.7661C45.4014 46.7705 45.6768 46.7852 45.9487 46.8135ZM43.248 47.3496C43.248 48.1221 42.6196 48.7505 41.8472 48.7505C41.0747 48.7505 40.4458 48.1221 40.4458 47.3496V44.2646C40.9043 44.3335 41.3716 44.3706 41.8472 44.3706C42.3223 44.3706 42.79 44.3335 43.248 44.2646V47.3496ZM41.8472 42.4956C38.0479 42.4956 34.8276 39.6523 34.3569 35.8828L33.9038 32.2559C34.1885 31.6792 34.3491 31.0308 34.3491 30.3457C34.3491 29.4067 34.0479 28.5376 33.5386 27.8271C35.8159 27.9795 38.667 27.6499 41.2114 25.8203C42.1665 27.5889 44.5684 30.7769 49.8311 31.9321L49.3374 35.8828C48.8662 39.6528 45.6465 42.4956 41.8472 42.4956ZM51.3608 34.811L51.6982 32.1118C51.9678 32.0498 52.2246 31.9321 52.4536 31.7607C52.7847 31.5122 53.0239 31.1758 53.1514 30.792C54.0278 31.0859 54.6616 31.9131 54.6616 32.8877C54.6616 34.1069 53.6699 35.0986 52.4507 35.0986C52.0615 35.0986 51.6909 34.9995 51.3608 34.811ZM54.2236 28.4277L54.1494 29.1729C53.9224 29.0684 53.6836 28.9839 53.436 28.9224L53.7007 26.9336C53.7686 26.4204 53.4077 25.9492 52.8945 25.8809C52.3823 25.8135 51.9102 26.1733 51.8418 26.6865L51.3784 30.1753C51.3735 30.2109 51.3564 30.2393 51.3281 30.2612C51.3081 30.2764 51.2744 30.2925 51.23 30.2856C44.2173 29.2178 42.5269 24.2515 42.46 24.0449C42.3633 23.7393 42.1182 23.5039 41.8086 23.4204C41.499 23.3374 41.1689 23.418 40.9326 23.6343C38.5859 25.7832 35.7183 26.1177 33.5078 25.9448L33.5459 25.7593C34.0649 23.2271 33.9336 20.6567 33.2046 18.2573C34.6011 16.9058 36.2783 15.9077 38.1143 15.3315C38.3071 16.5151 39.3335 17.4224 40.5708 17.4224H43.4521L44.5913 18.895C45.0669 19.5098 45.7852 19.8618 46.562 19.8618C47.3389 19.8618 48.0571 19.5098 48.5327 18.895L49.6191 17.4902C52.9214 20.1382 54.6416 24.2144 54.2236 28.4277Z" fill="black"/>
<path d="M47.7495 5.80469C47.2314 5.80469 46.812 6.22461 46.812 6.74219V7.59131H45.9629C45.4448 7.59131 45.0254 8.01123 45.0254 8.52881C45.0254 9.04688 45.4448 9.46631 45.9629 9.46631H46.812V10.3159C46.812 10.8335 47.2314 11.2534 47.7495 11.2534C48.2676 11.2534 48.687 10.8335 48.687 10.3159V9.46631H49.5361C50.0542 9.46631 50.4736 9.04688 50.4736 8.52881C50.4736 8.01123 50.0542 7.59131 49.5361 7.59131H48.687V6.74219C48.687 6.22461 48.2676 5.80469 47.7495 5.80469Z" fill="black"/>
<path d="M54.5016 4.69634C54.2214 4.52642 53.8727 4.51519 53.5822 4.66704L52.3908 5.28862C51.9318 5.52788 51.7536 6.09429 51.9933 6.55327C52.2023 6.95415 52.6598 7.14067 53.0783 7.02251V10.6206H52.8776C52.3596 10.6206 51.9401 11.0401 51.9401 11.5581C51.9401 12.0757 52.3596 12.4956 52.8776 12.4956H55.154C55.672 12.4956 56.0915 12.0757 56.0915 11.5581C56.0915 11.0401 55.672 10.6206 55.154 10.6206H54.9533V5.4981C54.9533 5.17046 54.7819 4.86626 54.5016 4.69634Z" fill="black"/>
</g>
<defs>
<clipPath id="clip0">
<rect width="64" height="64" fill="white"/>
</clipPath>
</defs>
</svg>
