<svg width="55" height="56" viewBox="0 0 55 56" fill="none" xmlns="http://www.w3.org/2000/svg">
<g clip-path="url(#clip0)">
<path d="M36.797 29.1436V19.0245C36.797 9.90471 29.5736 2.51172 20.6632 2.51172C11.7527 2.51172 4.52939 9.90471 4.52939 19.0245V29.1436C2.65567 29.9134 1.33252 31.79 1.33252 33.983C1.33252 36.862 3.6129 39.1958 6.42577 39.1958H28.946" fill="#B88175"/>
<path d="M23.7328 16.0301C23.1684 15.4524 22.6485 14.8589 22.1762 14.2591C19.3928 10.7243 13.9491 11.1901 11.8168 15.171C11.0294 16.6412 10.5815 18.3291 10.5815 20.124V24.4964C10.5815 29.3954 13.9172 33.4969 18.3908 34.5516V39.1977H22.9354V34.5516C27.4089 33.4968 30.7446 29.3953 30.7446 24.4964V20.5928C28.5766 19.9742 26.0265 18.3777 23.7328 16.0301Z" fill="#FFDCD5"/>
<path d="M36.5601 53.1309V53.9435H4.76611V44.738C4.76611 41.6779 7.1985 39.1973 10.199 39.1973H29.1006" fill="#CCF5FC"/>
<path d="M20.663 53.9435L15.105 39.1973H25.5292L20.663 53.9435Z" fill="#FAF7F5"/>
<path d="M41.3838 53.9423C48.1676 53.9423 53.6669 48.3137 53.6669 41.3706C53.6669 34.4274 48.1676 28.7988 41.3838 28.7988C34.5999 28.7988 29.1006 34.4274 29.1006 41.3706C29.1006 48.3137 34.5999 53.9423 41.3838 53.9423Z" fill="#FF9EB1"/>
<path d="M16.9836 23.9376C16.3962 23.9376 15.9199 23.4519 15.9199 22.8527V22.0126C15.9199 21.4134 16.3962 20.9277 16.9836 20.9277C17.571 20.9277 18.0473 21.4134 18.0473 22.0126V22.8527C18.0473 23.4518 17.571 23.9376 16.9836 23.9376Z" fill="black"/>
<path d="M24.4719 23.9376C23.8845 23.9376 23.4082 23.4519 23.4082 22.8527V22.0126C23.4082 21.4134 23.8845 20.9277 24.4719 20.9277C25.0593 20.9277 25.5356 21.4134 25.5356 22.0126V22.8527C25.5356 23.4518 25.0594 23.9376 24.4719 23.9376Z" fill="black"/>
<path d="M20.6529 29.9923C19.7619 29.9923 18.9247 29.6373 18.2951 28.9931C17.8804 28.5687 17.8816 27.8818 18.2977 27.4589C18.7142 27.036 19.3875 27.0373 19.8021 27.4617C20.0295 27.6945 20.3317 27.8227 20.6529 27.8227C20.974 27.8227 21.2761 27.6945 21.5035 27.4617C21.9182 27.0372 22.5917 27.0361 23.0079 27.4589C23.424 27.8818 23.4253 28.5687 23.0106 28.9931C22.381 29.6373 21.5437 29.9923 20.6529 29.9923Z" fill="black"/>
<path d="M53.1151 45.2651C52.5741 45.0324 51.95 45.2912 51.7218 45.8434C49.9607 50.1047 45.903 52.8582 41.384 52.8582C35.1976 52.8582 30.1646 47.7052 30.1646 41.3713C30.1646 35.0374 35.1975 29.8844 41.384 29.8844C45.927 29.8844 49.9931 32.6581 51.7429 36.9506C51.9683 37.5039 52.591 37.7657 53.1334 37.5359C53.6759 37.3059 53.9328 36.671 53.7073 36.1177C51.6266 31.013 46.7894 27.7147 41.384 27.7147C40.165 27.7147 38.9838 27.8829 37.861 28.1976V19.0254C37.861 9.32202 30.1463 1.42773 20.6634 1.42773C11.1808 1.42773 3.46602 9.32202 3.46602 19.0254V28.4594C1.50252 29.5554 0.269043 31.6507 0.269043 33.9837C0.269043 37.122 2.52485 39.7315 5.46494 40.2048C4.37262 41.3907 3.70269 42.9857 3.70269 44.7374V53.943C3.70269 54.5422 4.17902 55.0279 4.7664 55.0279H36.5603C36.9721 55.0279 37.3292 54.7892 37.506 54.4401C38.7337 54.8222 40.0358 55.0279 41.3839 55.0279C46.7606 55.0279 51.588 51.7535 53.6821 46.6861C53.9104 46.1339 53.6563 45.4978 53.1151 45.2651ZM2.39646 33.9837C2.39646 32.2867 3.38986 30.7821 4.92713 30.1505C5.32974 29.9852 5.59343 29.5869 5.59343 29.1443V19.0253C5.59343 10.5182 12.3538 3.59728 20.6635 3.59728C28.9732 3.59728 35.7335 10.5183 35.7335 19.0253V28.9997C32.1241 30.7326 29.3918 34.0717 28.4212 38.1117H23.9993V35.3781C26.0874 34.7063 27.9633 33.4016 29.3472 31.6436C30.9344 29.6275 31.8085 27.0889 31.8085 24.4953V20.5916C31.8085 20.1051 31.4909 19.678 31.0314 19.547C28.9521 18.9537 26.5666 17.3924 24.4865 15.2633C23.9588 14.7233 23.4605 14.1566 23.0057 13.5789C21.4695 11.6279 19.0885 10.5953 16.6394 10.8168C14.203 11.0368 12.0512 12.4698 10.8835 14.65C9.99027 16.3176 9.51809 18.2102 9.51809 20.1231V24.4955C9.51809 27.0891 10.3922 29.6277 11.9794 31.6439C13.3634 33.4018 15.2394 34.7064 17.3273 35.3782V38.1118H6.426C4.20412 38.1117 2.39646 36.2599 2.39646 33.9837ZM18.6307 33.4936C14.5179 32.524 11.6456 28.8239 11.6456 24.4954V20.123C11.6456 18.5726 12.0277 17.0397 12.7507 15.6901C13.5891 14.1247 15.075 13.1362 16.8271 12.978C18.5668 12.8215 20.2572 13.5533 21.3471 14.9375C21.8493 15.5753 22.3985 16.2002 22.9795 16.7949C25.0645 18.9287 27.4649 20.5656 29.6812 21.382V24.4955C29.6812 28.8239 26.8089 32.5241 22.6962 33.4937C22.2137 33.6075 21.872 34.0457 21.872 34.5507V38.1119H19.4548V34.5507C19.4548 34.0456 19.1132 33.6073 18.6307 33.4936ZM24.0493 40.2814L20.597 50.7432L16.6539 40.2814H24.0493ZM5.83011 44.7374C5.83011 42.2804 7.7901 40.2815 10.1993 40.2815H14.3746L19.115 52.8582H5.83011V44.7374ZM22.1438 52.8582L26.2938 40.2815H28.0793C28.0514 40.6411 28.0371 41.0045 28.0371 41.3713C28.0371 46.1853 30.4842 50.4256 34.1724 52.8582H22.1438Z" fill="black"/>
<path d="M54.7106 41.1593C54.6204 40.7135 54.2606 40.3636 53.8183 40.298C53.3748 40.2322 52.9252 40.4694 52.7216 40.8765C52.5195 41.2807 52.5862 41.7814 52.891 42.1137C53.1906 42.4402 53.6691 42.5431 54.0734 42.3734C54.5365 42.1789 54.8088 41.6605 54.7106 41.1593Z" fill="black"/>
<path d="M48.4453 37.468C48.4453 36.8689 47.9689 36.3832 47.3816 36.3832C46.2108 36.3832 45.2583 37.3563 45.2583 38.5524V39.3576C45.2583 41.1684 44.0686 42.6998 42.4478 43.1745V38.4036C42.89 38.272 43.213 37.8555 43.213 37.3622C43.213 36.763 42.7367 36.2773 42.1493 36.2773H40.6189C40.0315 36.2773 39.5552 36.763 39.5552 37.3622C39.5552 37.8555 39.8782 38.272 40.3203 38.4036V43.1745C38.6996 42.6998 37.5099 41.1684 37.5099 39.3576V38.5524C37.5099 37.3563 36.5574 36.3832 35.3866 36.3832C34.7991 36.3832 34.3208 36.8687 34.3208 37.4678C34.3208 38.067 34.795 38.5524 35.3824 38.5524V39.3576C35.3824 42.3713 37.5166 44.8848 40.3202 45.3997V48.1289C39.8781 48.2605 39.5551 48.677 39.5551 49.1703C39.5551 49.7695 40.0314 50.2552 40.6188 50.2552H42.1492C42.7366 50.2552 43.2129 49.7695 43.2129 49.1703C43.2129 48.6769 42.8898 48.2605 42.4477 48.1289V45.3998C45.2514 44.8849 47.3856 42.3714 47.3856 39.3577L47.3809 38.553H47.3815C47.9691 38.5529 48.4453 38.0672 48.4453 37.468Z" fill="black"/>
</g>
<defs>
<clipPath id="clip0">
<rect width="54.4615" height="55.5429" fill="white" transform="translate(0.269043 0.457031)"/>
</clipPath>
</defs>
</svg>
