<?xml version="1.0" encoding="iso-8859-1"?>
<!-- Generator: Adobe Illustrator 19.0.0, SVG Export Plug-In . SVG Version: 6.00 Build 0)  -->
<svg version="1.1" id="Capa_1" xmlns="http://www.w3.org/2000/svg" xmlns:xlink="http://www.w3.org/1999/xlink" x="0px" y="0px"
	 viewBox="0 0 512 512" style="enable-background:new 0 0 512 512;" xml:space="preserve">
<circle style="fill:#AF4E42;" cx="43.02" cy="275.38" r="32.809"/>
<path style="fill:#C76D5F;" d="M235.299,378.941c0-59.201-49.78-107.365-110.968-107.365S13.363,319.741,13.363,378.941H235.299z"/>
<circle style="fill:#E6B09C;" cx="217.74" cy="378.94" r="23.418"/>
<path style="fill:#FFC4B0;" d="M217.743,378.516c-0.189-39.125-41.005-65.239-76.638-49.081c-2.692,1.221-5.131,2.489-7.263,3.695
	c-5.906,3.34-13.115,3.34-19.021,0c-2.133-1.206-4.572-2.474-7.264-3.695c-35.633-16.158-76.449,9.955-76.638,49.081
	c-0.001,0.142-0.001,0.284-0.001,0.426c0,49.601,41.822,89.81,93.413,89.81s93.413-40.209,93.413-89.81
	C217.744,378.799,217.743,378.658,217.743,378.516z"/>
<path style="fill:#E6B09C;" d="M50.917,378.941c0-0.142,0-0.284,0.001-0.426c0.132-27.372,20.15-48.371,44.365-52.987
	c-24.538-4.698-49.05,8.489-59.325,30.445c-1.455-0.296-3.121-0.449-5.041-0.449c-12.933,0-23.417,10.484-23.417,23.417
	c0,12.934,10.484,23.418,23.417,23.418c1.126,0,2.163-0.114,3.125-0.319c10.603,38.407,47.005,66.712,90.288,66.712
	c3.379,0,6.714-0.177,10-0.513C87.443,463.44,50.917,425.293,50.917,378.941z"/>
<path style="fill:#333E40;" d="M276.701,150.615c0-59.201,49.78-107.365,110.968-107.365s110.968,48.164,110.968,107.365H276.701z"
	/>
<path style="fill:#283234;" d="M402.669,44.234c-4.907-0.645-9.913-0.985-15-0.985c-61.188,0-110.968,48.164-110.968,107.365h30
	C306.701,96.335,348.55,51.34,402.669,44.234z"/>
<circle style="fill:#E6B09C;" cx="481.08" cy="150.611" r="23.418"/>
<path style="fill:#FFC4B0;" d="M294.257,150.189c0.189-39.125,41.005-65.239,76.638-49.081c2.692,1.221,5.131,2.489,7.263,3.695
	c5.906,3.34,13.115,3.34,19.021,0c2.133-1.206,4.572-2.474,7.264-3.695c35.633-16.158,76.449,9.955,76.638,49.081
	c0.001,0.142,0.001,0.284,0.001,0.426c0,49.601-41.822,89.81-93.413,89.81s-93.413-40.209-93.413-89.81
	C294.256,150.473,294.256,150.331,294.257,150.189z"/>
<path style="fill:#E6B09C;" d="M314.256,150.615c0-0.142,0-0.284,0.001-0.426c0.132-27.372,20.15-48.371,44.365-52.988
	c-24.607-4.711-49.186,8.563-59.41,30.628c-1.46-0.409-3.1-0.632-4.955-0.632c-12.933,0-23.418,10.484-23.418,23.417
	s10.484,23.417,23.418,23.417c1.126,0,2.171-0.084,3.148-0.237c10.632,38.365,47.012,66.63,90.265,66.63
	c3.379,0,6.714-0.177,10-0.513C350.781,235.114,314.256,196.967,314.256,150.615z"/>
<path style="fill:#49C3E0;" d="M428.376,273.901h-56.159c-42.042,0-76.124,34.082-76.124,76.124l0,0
	c0,14.16,3.879,27.409,10.613,38.765l-0.017-0.01l-35.665,20.339c-8.122,4.632-4.835,17.03,4.515,17.03h152.838
	c42.042,0,76.124-34.082,76.124-76.124l0,0C504.5,307.983,470.418,273.901,428.376,273.901z"/>
<path style="fill:#3AC7B4;" d="M83.624,45.575h56.159c42.042,0,76.124,34.082,76.124,76.124l0,0c0,14.16-3.879,27.409-10.613,38.765
	l0.017-0.01l35.665,20.339c8.122,4.632,4.835,17.03-4.515,17.03H83.624c-42.042,0-76.124-34.082-76.124-76.124l0,0
	C7.5,79.656,41.582,45.575,83.624,45.575z"/>
<path d="M259.479,421.293c1.959,7.39,8.413,12.356,16.059,12.356h152.838c46.11,0,83.624-37.514,83.624-83.624
	s-37.513-83.624-83.624-83.624h-56.159c-46.11,0-83.624,37.514-83.624,83.624c0,12.434,2.772,24.684,8.068,35.84l-29.353,16.739
	C260.666,406.391,257.521,413.901,259.479,421.293z M274.739,415.634l35.227-20.09c0.767-0.37,1.48-0.875,2.101-1.511
	c2.375-2.428,2.822-6.148,1.09-9.069c-6.257-10.552-9.564-22.634-9.564-34.939c0-37.839,30.785-68.624,68.624-68.624h56.159
	c37.839,0,68.624,30.785,68.624,68.624c0,37.84-30.784,68.624-68.624,68.624c0,0-152.517,0-152.837,0
	C273.886,418.649,273.328,416.438,274.739,415.634z"/>
<path d="M346.674,325.722h102.898c4.142,0,7.5-3.357,7.5-7.5c0-4.142-3.358-7.5-7.5-7.5H346.674c-4.142,0-7.5,3.358-7.5,7.5
	C339.174,322.365,342.532,325.722,346.674,325.722z"/>
<path d="M346.674,357.525h102.898c4.142,0,7.5-3.357,7.5-7.5c0-4.142-3.358-7.5-7.5-7.5H346.674c-4.142,0-7.5,3.358-7.5,7.5
	S342.532,357.525,346.674,357.525z"/>
<path d="M346.674,389.327h60.295c4.142,0,7.5-3.358,7.5-7.5s-3.358-7.5-7.5-7.5h-60.295c-4.142,0-7.5,3.358-7.5,7.5
	S342.532,389.327,346.674,389.327z"/>
<path d="M83.624,205.322h152.837c7.646,0,14.1-4.965,16.059-12.355c1.959-7.391-1.187-14.901-7.829-18.689l-29.353-16.739
	c5.296-11.156,8.068-23.406,8.068-35.839c0-46.11-37.514-83.624-83.624-83.624H83.624C37.513,38.075,0,75.589,0,121.699
	S37.513,205.322,83.624,205.322z M83.624,53.075h56.159c37.84,0,68.624,30.785,68.624,68.624c0,12.306-3.307,24.388-9.564,34.939
	c-1.737,2.929-1.274,6.656,1.116,9.083c0.576,0.586,1.231,1.06,1.935,1.418c0,0,34.85,19.874,35.362,20.166
	c1.44,0.821,0.846,3.018-0.794,3.018H83.624C45.784,190.322,15,159.538,15,121.699S45.784,53.075,83.624,53.075z"/>
<path d="M62.427,97.395h102.898c4.142,0,7.5-3.358,7.5-7.5s-3.358-7.5-7.5-7.5H62.427c-4.142,0-7.5,3.358-7.5,7.5
	S58.285,97.395,62.427,97.395z"/>
<path d="M62.427,129.199h102.898c4.142,0,7.5-3.358,7.5-7.5s-3.358-7.5-7.5-7.5H62.427c-4.142,0-7.5,3.358-7.5,7.5
	S58.285,129.199,62.427,129.199z"/>
<path d="M165.325,146.001H105.03c-4.142,0-7.5,3.358-7.5,7.5c0,4.143,3.358,7.5,7.5,7.5h60.295c4.142,0,7.5-3.357,7.5-7.5
	C172.825,149.359,169.467,146.001,165.325,146.001z"/>
<path d="M432.5,139.396c-4.142,0-7.5,3.358-7.5,7.5v7.521c0,4.142,3.358,7.5,7.5,7.5s7.5-3.358,7.5-7.5v-7.521
	C440,142.755,436.642,139.396,432.5,139.396z"/>
<path d="M340.5,139.396c-4.143,0-7.5,3.358-7.5,7.5v7.521c0,4.142,3.357,7.5,7.5,7.5c4.142,0,7.5-3.358,7.5-7.5v-7.521
	C348,142.755,344.641,139.396,340.5,139.396z"/>
<path d="M405.208,148.754c-3.12-2.727-7.857-2.408-10.583,0.711c-1.673,1.914-4.209,3.012-6.956,3.012s-5.282-1.098-6.956-3.012
	c-2.726-3.119-7.464-3.437-10.583-0.711c-3.119,2.726-3.437,7.464-0.711,10.583c4.521,5.173,11.173,8.14,18.249,8.14
	s13.728-2.967,18.249-8.14C408.645,156.217,408.326,151.48,405.208,148.754z"/>
<path d="M504.249,130.173c-4.808-25.814-18.745-49.412-39.427-66.66c-21.469-17.904-48.87-27.764-77.153-27.764
	c-16.257,0-32.022,3.153-46.86,9.372c-3.82,1.601-5.619,5.996-4.018,9.816c1.601,3.82,5.996,5.619,9.816,4.018
	c12.991-5.445,26.807-8.206,41.062-8.206c24.779,0,48.768,8.624,67.546,24.284c14.503,12.094,25.191,27.749,30.977,45.085
	c-1.683-0.285-3.403-0.421-5.11-0.421c-0.073,0-0.69,0.056-0.714,0.008c-3.5-6.998-9.797-13.412-16.03-18.153
	C453.53,93.333,440.3,88.747,426.7,88.747c-5.798,0-11.503,0.839-17.054,2.464c-0.022,0.006-0.044,0.014-0.066,0.02
	c-5.643,1.631-10.991,4.158-16.092,7.043c-3.547,2.006-8.089,2.006-11.637,0c-5.097-2.884-10.473-5.41-16.107-7.047
	c-0.015-0.004-0.031-0.01-0.046-0.014c-5.552-1.626-11.259-2.465-17.059-2.465c-13.337,0-26.899,4.6-37.504,12.704
	c-6.412,4.847-11.958,10.98-16.164,18.254c-1.665-0.037-3.37,0.023-5.013,0.297c-0.272,0.038-0.546,0.071-0.817,0.116
	c5.983-17.962,17.21-34.063,32.519-46.339c3.231-2.591,3.75-7.312,1.159-10.543c-2.591-3.231-7.312-3.75-10.543-1.159
	c-21.675,17.382-36.234,41.491-41.185,68.095c-4.818,5.454-7.751,12.61-7.751,20.442c0,16.271,12.636,29.636,28.609,30.822
	c13.4,38.596,51.245,66.488,95.722,66.488s82.322-27.892,95.722-66.488C499.364,180.251,512,166.885,512,150.615
	C512,142.783,509.067,135.627,504.249,130.173z M287.889,165.202c-5.617-2.461-9.551-8.074-9.551-14.588
	c0-6.451,4.104-12.443,10.096-14.813c0.022-0.008,0.045-0.015,0.067-0.023c-0.396,1.624-0.701,3.271-0.962,4.928
	c-0.492,3.113-0.77,6.278-0.781,9.431c0,0,0,0.047,0,0.059c-0.196,4.94,0.338,9.962,1.108,14.838
	C287.874,165.09,287.88,165.146,287.889,165.202z M387.669,232.924c-39.941,0-73.603-26.249-83.181-61.687
	c-5.587-20.952-2.357-44.463,16.049-58.121c12.644-9.382,29.664-12.163,45.061-6.108c3.616,1.429,6.924,3.448,10.418,5.133
	c7.809,3.765,17.142,3.487,24.713-0.736c0.047-0.026,0.096-0.048,0.143-0.075c2.308-1.305,4.675-2.506,7.102-3.576
	c15.273-6.747,33.407-4.583,46.801,5.342c18.407,13.639,21.739,36.916,16.138,57.899c-0.021,0.081-0.041,0.162-0.063,0.242
	C461.271,206.676,427.61,232.924,387.669,232.924z M487.449,165.202c0.009-0.056,0.014-0.113,0.023-0.168
	c1.007-6.56,1.421-13.265,0.863-19.887c-0.262-3.107-0.748-6.292-1.496-9.359c0.112,0.044,0.225,0.086,0.336,0.132
	c1.742,0.718,3.37,1.762,4.745,3.053c3.122,2.908,5.08,7.049,5.08,11.642C497,157.129,493.066,162.742,487.449,165.202z"/>
<path d="M77.5,367.723c-4.143,0-7.5,3.358-7.5,7.5v7.521c0,4.142,3.357,7.5,7.5,7.5c4.142,0,7.5-3.358,7.5-7.5v-7.521
	C85,371.081,81.641,367.723,77.5,367.723z"/>
<path d="M169.5,367.723c-4.142,0-7.5,3.358-7.5,7.5v7.521c0,4.142,3.358,7.5,7.5,7.5s7.5-3.358,7.5-7.5v-7.521
	C177,371.081,173.642,367.723,169.5,367.723z"/>
<path d="M141.869,377.08c-3.12-2.727-7.857-2.408-10.583,0.71c-1.673,1.914-4.208,3.012-6.956,3.012
	c-2.747,0-5.282-1.098-6.956-3.012c-2.725-3.118-7.463-3.437-10.583-0.71c-3.119,2.726-3.437,7.464-0.711,10.583
	c4.521,5.173,11.173,8.14,18.249,8.14s13.728-2.967,18.249-8.14C145.306,384.544,144.987,379.806,141.869,377.08z"/>
<path d="M28.608,409.763c13.4,38.596,51.245,66.488,95.722,66.488s82.322-27.892,95.722-66.488
	c15.973-1.186,28.609-14.552,28.609-30.822c0-7.833-2.934-14.99-7.752-20.444c-5.183-27.884-20.761-52.786-44.061-70.325
	c-3.31-2.491-8.012-1.827-10.503,1.481c-2.491,3.31-1.827,8.012,1.482,10.503c16.632,12.52,28.743,29.316,35.042,48.29
	c-0.084-0.014-0.169-0.022-0.254-0.036c-1.714-0.271-3.452-0.379-5.186-0.379c-0.134,0.001-0.267-0.003-0.4,0
	c-4.35-7.523-10.338-14.097-17.391-19.17c-10.208-7.403-22.747-11.787-36.278-11.787c-11.825,0-23.016,3.707-33.212,9.526
	c-3.508,2.002-8.12,1.988-11.637,0c-10.227-5.78-21.373-9.526-33.212-9.526c-13.542,0-26.09,4.391-36.303,11.805
	c-6.78,4.921-12.572,11.138-16.881,18.33c-0.164,0.273-0.325,0.547-0.484,0.823c-0.135-0.003-0.269,0.001-0.403,0
	c-0.516-0.005-2.568,0.076-3.079,0.122c-0.783,0.07-1.567,0.16-2.342,0.291c4.322-12.951,11.382-24.962,20.723-35.253
	c0.007-0.008,0.015-0.014,0.022-0.021c8.639-9.25,18.797-17.124,30.119-22.815c14.628-7.347,30.96-11.278,47.658-11.278
	c13.173,0,26.019,2.373,38.181,7.052c3.866,1.487,8.206-0.441,9.693-4.307s-0.441-8.206-4.307-9.693
	c-13.887-5.343-28.545-8.052-43.567-8.052c-14.171,0-28.12,2.476-41.212,7.198c-2.065-20.304-19.262-36.2-40.102-36.2
	c-22.227,0-40.309,18.083-40.309,40.309c0,16.709,10.258,31.191,24.942,37.261c-9.972,13.646-16.815,29.294-19.9,45.856
	C2.933,363.953,0,371.109,0,378.941C0,395.212,12.636,408.577,28.608,409.763z M38.142,300.217
	c-11.693-2.28-20.434-12.61-20.434-24.834c0-13.956,11.354-25.309,25.309-25.309c13.956,0,25.31,11.354,25.31,25.309
	c0,0.806-0.04,1.616-0.119,2.425c-11.096,5.814-21.271,13.377-30.009,22.354C38.18,300.18,38.16,300.198,38.142,300.217z
	 M24.55,393.529c-5.616-2.461-9.55-8.074-9.55-14.588c0-4.575,1.943-8.701,5.043-11.607c1.461-1.369,3.192-2.468,5.053-3.207
	c0.022-0.008,0.044-0.014,0.066-0.023c-0.152,0.622-0.268,1.253-0.4,1.88c-0.896,4.257-1.346,8.606-1.346,12.956
	c0,3.562,0.213,7.127,0.609,10.667c0.14,1.253,0.31,2.503,0.5,3.75C24.535,393.414,24.541,393.472,24.55,393.529z M124.33,461.251
	c-39.942,0-73.604-26.251-83.182-61.69c-0.021-0.077-0.04-0.154-0.06-0.231c-1.974-7.426-3.032-15.45-2.596-23.193
	c0.8-14.159,7.984-26.66,18.71-34.696c12.642-9.379,29.656-12.159,45.05-6.107c3.061,1.203,6.013,2.707,8.875,4.325
	c8.117,4.59,18.288,4.59,26.404,0c2.863-1.618,5.808-3.118,8.871-4.324c15.384-6.048,32.386-3.277,45.026,6.085
	c10.745,8.04,17.942,20.56,18.74,34.747c0.439,7.814-0.619,15.856-2.657,23.395C197.935,435,164.273,461.251,124.33,461.251z
	 M224.111,393.529c0.009-0.058,0.015-0.115,0.023-0.173c0.727-4.766,1.109-9.594,1.109-14.416c0-4.27-0.432-8.539-1.295-12.721
	c-0.146-0.706-0.279-1.415-0.45-2.115c0.022,0.009,0.36,0.15,0.506,0.214c1.698,0.736,3.263,1.75,4.613,3.016
	c3.1,2.906,5.044,7.032,5.044,11.607C233.661,385.455,229.727,391.068,224.111,393.529z"/>
<g>
</g>
<g>
</g>
<g>
</g>
<g>
</g>
<g>
</g>
<g>
</g>
<g>
</g>
<g>
</g>
<g>
</g>
<g>
</g>
<g>
</g>
<g>
</g>
<g>
</g>
<g>
</g>
<g>
</g>
</svg>
