<svg width="123" height="102" viewBox="0 0 123 102" fill="none" xmlns="http://www.w3.org/2000/svg">
<path d="M12.6637 35.0513C11.7446 34.4887 10.7367 34.0568 9.66618 33.7813C9.39051 32.7107 8.95859 31.7028 8.39614 30.7836C7.71118 29.6644 6.10736 29.6644 5.42254 30.7836C4.85995 31.7028 4.42803 32.7107 4.15236 33.7813C3.08181 34.0568 2.07419 34.4887 1.15479 35.0513C0.0356418 35.7363 0.0356418 37.34 1.15479 38.0249C2.07392 38.5875 3.08181 39.0194 4.1525 39.2951C4.42817 40.3656 4.85995 41.3734 5.42254 42.2927C6.10736 43.4118 7.71118 43.4118 8.39614 42.2927C8.95859 41.3734 9.39051 40.3656 9.66618 39.2951C10.7367 39.0194 11.7445 38.5875 12.6637 38.0249C13.783 37.34 13.783 35.7363 12.6637 35.0513Z" fill="#0635C9"/>
<path d="M65.0628 3.11084C64.5029 2.76823 63.8891 2.50501 63.2369 2.33725C63.069 1.68509 62.8059 1.07122 62.4633 0.511311C62.0461 -0.170437 61.0692 -0.170437 60.652 0.511311C60.3092 1.07122 60.0461 1.68522 59.8783 2.33725C59.2262 2.50514 58.6124 2.76823 58.0523 3.11084C57.3706 3.52803 57.3706 4.50487 58.0523 4.92219C58.6122 5.2648 59.2261 5.52802 59.8783 5.69591C60.0461 6.34794 60.3092 6.96194 60.6518 7.52185C61.069 8.2036 62.0459 8.2036 62.4632 7.52185C62.8058 6.96194 63.0689 6.34807 63.2368 5.69591C63.8888 5.52802 64.5028 5.26494 65.0627 4.92219C65.7446 4.50487 65.7446 3.52803 65.0628 3.11084Z" fill="#0635C9"/>
<path d="M17.1527 69.6519C16.5928 69.3092 15.9789 69.046 15.3267 68.8783C15.1589 68.2261 14.8958 67.6122 14.5532 67.0523C14.136 66.3706 13.159 66.3706 12.7418 67.0523C12.3991 67.6122 12.136 68.2262 11.9681 68.8783C11.3161 69.0462 10.7022 69.3092 10.1422 69.6519C9.46042 70.069 9.46042 71.0459 10.1422 71.4632C10.7021 71.8058 11.3159 72.069 11.9681 72.2369C12.136 72.889 12.3991 73.503 12.7417 74.0629C13.1589 74.7446 14.1357 74.7446 14.553 74.0629C14.8956 73.503 15.1587 72.8891 15.3266 72.2369C15.9786 72.069 16.5926 71.806 17.1525 71.4632C17.8344 71.0459 17.8344 70.069 17.1527 69.6519Z" fill="#1AE5BE"/>
<path d="M106.486 11.7616C105.567 11.1991 104.559 10.7671 103.488 10.4916C103.213 9.42105 102.781 8.41316 102.218 7.4939C101.533 6.37475 99.9296 6.37475 99.2448 7.4939C98.6822 8.41316 98.2503 9.42105 97.9746 10.4916C96.9041 10.7671 95.8965 11.1991 94.9771 11.7616C93.8579 12.4466 93.8579 14.0503 94.9771 14.7352C95.8962 15.2978 96.9041 15.7297 97.9748 16.0054C98.2504 17.076 98.6822 18.0837 99.2448 19.003C99.9296 20.1221 101.533 20.1221 102.218 19.003C102.781 18.0837 103.213 17.076 103.488 16.0054C104.559 15.7297 105.567 15.2978 106.486 14.7352C107.605 14.0503 107.605 12.4466 106.486 11.7616Z" fill="#0635C9"/>
<path d="M28.4662 12.4264C27.9062 12.0838 27.2924 11.8206 26.6402 11.6528C26.4723 11.0006 26.2092 10.3868 25.8666 9.82686C25.4494 9.14511 24.4725 9.14511 24.0553 9.82686C23.7126 10.3868 23.4495 11.0008 23.2816 11.6528C22.6296 11.8207 22.0157 12.0838 21.4556 12.4264C20.7739 12.8436 20.7739 13.8204 21.4556 14.2377C22.0156 14.5804 22.6294 14.8436 23.2816 15.0115C23.4495 15.6635 23.7125 16.2775 24.0552 16.8374C24.4723 17.5192 25.4492 17.5192 25.8665 16.8374C26.2091 16.2775 26.4722 15.6636 26.6401 15.0115C27.2921 14.8436 27.9061 14.5805 28.466 14.2377C29.1479 13.8204 29.1479 12.8436 28.4662 12.4264Z" fill="#1AE5BE"/>
<path d="M121.622 45.6975C121.062 45.3549 120.449 45.0917 119.796 44.9239C119.629 44.2718 119.365 43.6579 119.023 43.098C118.606 42.4162 117.629 42.4162 117.212 43.098C116.869 43.6579 116.606 44.2719 116.438 44.9239C115.786 45.0918 115.172 45.3549 114.612 45.6975C113.93 46.1147 113.93 47.0915 114.612 47.5089C115.172 47.8515 115.786 48.1147 116.438 48.2826C116.606 48.9346 116.869 49.5486 117.211 50.1085C117.629 50.7903 118.605 50.7903 119.023 50.1085C119.365 49.5486 119.628 48.9347 119.796 48.2826C120.448 48.1147 121.062 47.8516 121.622 47.5089C122.304 47.0915 122.304 46.1147 121.622 45.6975Z" fill="#1AE5BE"/>
<g clip-path="url(#clip0)">
<path d="M40.9899 80.4517H40.147C36.4549 80.4475 33.4626 77.4553 33.4584 73.7638V21.2851C33.4584 20.4472 33.6169 19.6156 33.9255 18.8364C31.3699 19.8442 29.6891 22.3106 29.6855 25.058V77.5359C29.6898 81.2281 32.682 84.2203 36.3742 84.2239H37.2185C39.9651 84.2203 42.4315 82.5402 43.44 79.9846C42.6601 80.2932 41.8286 80.4517 40.9899 80.4517Z" fill="#D4E1F4"/>
<path d="M95.8071 80.4518H47.4877C49.2987 78.698 50.3207 76.2847 50.3193 73.7638V40.1479C50.3186 39.3093 50.4771 38.4784 50.7857 37.6985C48.2301 38.707 46.55 41.1734 46.5464 43.9207V77.536C46.5478 80.0569 45.5259 82.4709 43.7148 84.2239H92.0343C94.7816 84.2211 97.248 82.541 98.2565 79.9854C97.4766 80.2939 96.6458 80.4518 95.8071 80.4518Z" fill="#D4E1F4"/>
<path d="M91.6391 34.8967H91.121V34.5584C91.1196 29.5017 87.0241 25.4005 81.9674 25.3906L67.157 25.38C66.9588 25.3793 66.7706 25.2965 66.6368 25.1507L61.2674 19.2674C59.532 17.3693 57.0798 16.2858 54.5079 16.2815L36.8022 16.2688H36.7952C31.7413 16.2752 27.6451 20.3686 27.6352 25.4224L27.5977 77.1369C27.5998 82.1935 31.6946 86.2947 36.7513 86.3039H37.5821L91.6016 86.3436H91.6087C96.6625 86.3372 100.759 82.2438 100.769 77.1899L100.793 44.0637C100.791 39.0071 96.6957 34.9059 91.6391 34.8967ZM37.5885 83.7682H36.7534C33.0945 83.7654 30.1313 80.7972 30.1341 77.1383L30.1716 25.4246C30.1787 21.7699 33.1412 18.8095 36.7959 18.8053H36.8001L54.5058 18.818C56.3657 18.8215 58.1392 19.605 59.394 20.9773L64.7635 26.8612C65.3778 27.5321 66.2454 27.9157 67.1556 27.9171L81.966 27.9278C85.6228 27.9348 88.5839 30.9002 88.5853 34.557V34.8945L53.4039 34.8691H53.3968C48.3409 34.8698 44.2404 38.9668 44.2368 44.0234L44.2128 77.1496C44.2064 80.8043 41.2432 83.7639 37.5885 83.7682ZM98.2322 77.1878C98.2294 80.8446 95.2647 83.8071 91.6087 83.8071H91.6037L43.9113 83.7731C43.9615 83.725 44.0118 83.6762 44.0613 83.6266C45.786 81.914 46.7542 79.582 46.7492 77.151L46.7733 44.0248C46.7754 40.3687 49.7407 37.4062 53.3968 37.4055H53.4018L91.637 37.4338C95.2937 37.4402 98.2548 40.4055 98.2563 44.0623L98.2322 77.1878Z" fill="#0635C9"/>
<path d="M84.2177 58.9426C84.8624 58.4642 85.0414 57.5753 84.6317 56.8853L82.2346 52.8541C81.8404 52.1372 80.9402 51.8739 80.2219 52.2653L78.0662 53.2575C77.6705 52.9914 77.2579 52.7522 76.8298 52.542L76.604 50.0515L76.5835 49.9638C76.4292 49.2518 75.805 48.7408 75.0768 48.7302H70.3994C69.604 48.7281 68.938 49.3332 68.8644 50.1251L68.6457 52.5399C68.2126 52.7465 67.795 52.9843 67.3973 53.2526L65.2133 52.2483L65.1545 52.2228C64.4419 51.9369 63.6273 52.2108 63.2317 52.869L60.9019 56.8796C60.4886 57.5746 60.6697 58.4692 61.3194 58.949L63.3003 60.3581C63.2472 60.84 63.2465 61.3262 63.2989 61.8075L61.2479 63.2045L61.197 63.2406C60.5664 63.7233 60.3902 64.5987 60.7851 65.288L63.1227 69.31L63.1319 69.3256C63.3201 69.6483 63.6153 69.8939 63.967 70.0206C64.3555 70.1522 64.7816 70.114 65.1404 69.9144L67.3011 68.9208C67.696 69.1869 68.1086 69.4261 68.536 69.6363L68.7632 72.1274L68.7837 72.2138C68.9366 72.9257 69.5615 73.4381 70.2898 73.448H74.9664C75.7618 73.4502 76.4271 72.8458 76.5014 72.0538L76.7201 69.6391C77.1532 69.4324 77.5708 69.1946 77.9685 68.9264L80.1518 69.9314L80.2162 69.959C80.9275 70.2385 81.7364 69.9661 82.1334 69.3128L84.4703 65.2902C84.8751 64.5994 84.6961 63.7148 84.0549 63.2357L82.2268 61.8429C82.2828 61.3496 82.2835 60.8513 82.229 60.3574L84.1893 58.9631L84.2177 58.9426ZM79.5071 59.1804L79.6394 60.1118C79.7633 60.7572 79.7633 61.4203 79.6394 62.0658L79.5099 62.9639L81.8525 64.7473L80.3967 67.2527L77.6182 65.9738L76.8722 66.5846C76.3549 66.9859 75.7831 67.3128 75.1751 67.557L74.3301 67.9193L74.0584 70.913H71.1999L70.9281 67.9193L70.0831 67.557C69.461 67.2916 68.8736 66.9519 68.3343 66.5442L67.599 65.9922L64.8615 67.2527L63.4298 64.7884L65.2324 63.5612L66.0229 62.9901L65.8906 62.0623C65.7667 61.4182 65.7667 60.7558 65.8906 60.1118L66.0236 59.1811L63.5289 57.4069L64.9691 54.927L67.749 56.2052L68.4943 55.5951C69.0123 55.1938 69.5834 54.8669 70.1914 54.6227L71.0378 54.2604L71.3096 51.2667H74.168L74.4398 54.2604L75.2855 54.6227C75.9069 54.8874 76.4943 55.2278 77.0329 55.6347L77.7689 56.1875L80.5156 54.9235L81.9954 57.4132L79.5071 59.1804Z" fill="#1AE5BE"/>
<path d="M72.71 55.2441C69.4814 55.2441 66.8643 57.8613 66.8643 61.0899C66.8643 64.3177 69.4814 66.9349 72.71 66.9349C75.9387 66.9349 78.5558 64.3177 78.5558 61.0899C78.5721 59.5343 77.962 58.0375 76.8622 56.9377C75.7624 55.8379 74.2656 55.2271 72.71 55.2441ZM72.71 64.3984C70.8827 64.3984 69.4007 62.9172 69.4007 61.0899C69.4007 59.2618 70.8827 57.7806 72.71 57.7806C74.5374 57.7806 76.0193 59.2618 76.0193 61.0899C76.0285 61.9703 75.6832 62.8174 75.0604 63.4402C74.4376 64.0623 73.5904 64.4083 72.71 64.3984Z" fill="#1AE5BE"/>
<path d="M71.6675 41.9426C77.7334 41.9426 82.6641 45.0728 85.6881 48.3864L81.2769 48.2413C80.5798 48.2236 79.9995 48.7714 79.9769 49.4678C79.9535 50.1642 80.497 50.7487 81.1927 50.7763L87.9755 51.0007C88.4412 51.1748 88.9656 51.0608 89.3173 50.7091C89.6684 50.3567 89.7816 49.8322 89.6068 49.3666L89.3831 42.5866C89.3548 41.8909 88.7703 41.3474 88.0739 41.3708C87.3782 41.3934 86.8304 41.9737 86.8481 42.6701L86.9585 46.0219C83.4673 42.455 78.1877 39.4061 71.6675 39.4061C59.0666 39.4061 50.6016 50.2986 50.6016 60.4721C50.6016 61.172 51.1692 61.7403 51.8698 61.7403C52.5704 61.7403 53.138 61.172 53.138 60.4721C53.138 56.1416 55.0092 51.477 58.143 47.995C61.5726 44.1287 66.4991 41.9242 71.6675 41.9426Z" fill="#1AE5BE"/>
<path d="M91.7287 59.2039C91.0281 59.2039 90.4605 59.7714 90.4605 60.4721C90.4605 64.8019 88.59 69.4665 85.4562 72.9484C82.0259 76.8147 77.0995 79.0192 71.931 79.0008C65.8651 79.0008 60.9337 75.8706 57.9104 72.5571L62.3223 72.7022C63.0222 72.7248 63.6082 72.1763 63.6316 71.4764C63.6542 70.7765 63.1057 70.1898 62.4058 70.1671L55.6237 69.9435C55.158 69.7694 54.6336 69.884 54.2826 70.2358C53.9316 70.5875 53.8183 71.1119 53.9931 71.5769L54.2168 78.3568C54.2444 79.0532 54.829 79.596 55.5253 79.5734C56.2217 79.55 56.7688 78.9697 56.7511 78.2733L56.6407 74.9216C60.1319 78.4892 65.4115 81.5373 71.9324 81.5373C84.5333 81.5373 92.9977 70.6448 92.9977 60.4721C92.9977 59.7707 92.4294 59.2032 91.7287 59.2039Z" fill="#1AE5BE"/>
</g>
<path opacity="0.1" d="M13 99.4116C13 98.1606 56.2361 97.1492 75.3629 97.1492C94.4896 97.1492 110 98.1606 110 99.4116C110 100.663 94.4896 101.674 75.3629 101.674C56.2361 101.674 13 100.663 13 99.4116Z" fill="#2D2D2D"/>
<defs>
<clipPath id="clip0">
<rect width="73.1951" height="73.1951" fill="white" transform="translate(27.5977 14.6382)"/>
</clipPath>
</defs>
</svg>
