<svg id="Capa_1" enable-background="new 0 0 512 512" height="512" viewBox="0 0 512 512" width="512" xmlns="http://www.w3.org/2000/svg"><g><path d="m256 0-109.125 218.25 109.125 218.25v75.5c126.262-37.971 218.25-155.12 218.25-293.75 0-120.536-97.714-218.25-218.25-218.25z" fill="#22858d"/><path d="m37.75 218.25c0 120.536 97.714 218.25 218.25 218.25v-436.5c-120.536 0-218.25 97.714-218.25 218.25z" fill="#1f958c"/><path d="m386.501 218.25-190.5-30 59.999 112.499h55.501v-33.507l75 45z" fill="#e3e7ea"/><path d="m311.501 169.256v-33.507h-55.501l-60 82.5 190.501.001v-93.994z" fill="#c6cfd5"/><path d="m121.501 218.25v82.499h134.499v-82.499l-67.25-30z" fill="#fff"/><path d="m121.501 135.749h134.499v82.501h-134.499z" fill="#e3e7ea"/></g></svg>